# xmcd
#
# Track frame offsets: 
#        150
#        16026
#        33738
#        47159
#        60590
#        81189
#        92684
#        110691
#        129598
#        146848
#        158974
#
# Disc length: 2384 seconds
#
# Revision: 0
# Processed by: cddbd v1.5.2PL0 Copyright (c) Steve Scherf et al.
# Submitted via: ExactAudioCopy v0.95b4
#
DISCID=93094e0b
DTITLE=Hound Dog Taylor - Thank You, Honey
DYEAR=1975
DGENRE=
TTITLE0=01 Stompin'
TTITLE1=02 I Held My Baby Last Night
TTITLE2=03 Funky
TTITLE3=04 You Can't Set Down
TTITLE4=05 Hound Dog Blues
TTITLE5=06 Coming Round The Mountain
TTITLE6=07 Rock Me
TTITLE7=08 Florence's Shuffle
TTITLE8=09 Juke Joint Boogie
TTITLE9=10 Goodnight Boogie
TTITLE10=11 Everything's Alright
EXTD=
EXTT0=
EXTT1=
EXTT2=
EXTT3=
EXTT4=
EXTT5=
EXTT6=
EXTT7=
EXTT8=
EXTT9=
EXTT10=
PLAYORDER=
